<svg xmlns="http://www.w3.org/2000/svg" viewBox="0 0 2400 1600"><rect width="2400" height="1600" style="fill:#19418c"/><circle cx="1079.6144" cy="135.1696" r="9.3082" style="fill:#fff"/><circle cx="1175.1782" cy="147.5805" r="9.3082" style="fill:#fff"/><circle cx="1300.5282" cy="316.3685" r="9.3082" style="fill:#fff"/><circle cx="489.5338" cy="1185.1305" r="9.3082" style="fill:#fff"/><circle cx="513.735" cy="1259.5957" r="9.3081" style="fill:#fff"/><circle cx="398.3138" cy="1196.3002" r="6.9708" style="fill:#fff"/><circle cx="900.2771" cy="1342.5832" r="6.9915" style="fill:#fff"/><circle cx="1493.9724" cy="1219.2604" r="6.9707" style="fill:#fff"/><circle cx="1666.5045" cy="1031.856" r="6.9915" style="fill:#fff"/><circle cx="820.8474" cy="370.8109" r="6.9708" style="fill:#fff"/><circle cx="1010.734" cy="231.354" r="6.9708" style="fill:#fff"/><circle cx="990.1113" cy="217.702" r="6.9708" style="fill:#fff"/><circle cx="971.4949" cy="204.05" r="6.9708" style="fill:#fff"/><circle cx="850.6336" cy="406.8232" r="6.9708" style="fill:#fff"/><circle cx="1130.3336" cy="43.9496" r="6.9708" style="fill:#fff"/><circle cx="1176.2745" cy="245.0059" r="6.9708" style="fill:#fff"/><circle cx="1103.8156" cy="205.7462" r="6.9708" style="fill:#fff"/><circle cx="979.7068" cy="259.1337" r="6.9708" style="fill:#fff"/><circle cx="1527.0267" cy="1403.4173" r="6.9707" style="fill:#fff"/><circle cx="477.7435" cy="1232.2918" r="6.9914" style="fill:#fff"/><circle cx="1086.4404" cy="1322.2707" r="6.9915" style="fill:#fff"/><circle cx="622.1648" cy="1226.7068" r="6.9914" style="fill:#fff"/><circle cx="805.9544" cy="1325.2286" r="6.9915" style="fill:#fff"/><circle cx="1250.2641" cy="1263.1741" r="6.9708" style="fill:#fff"/><circle cx="1495.2136" cy="1124.9376" r="6.9708" style="fill:#fff"/><circle cx="1680.9218" cy="1209.7868" r="6.9707" style="fill:#fff"/><circle cx="1744.2172" cy="1250.2876" r="6.9707" style="fill:#fff"/><circle cx="1754.6216" cy="1139.8307" r="6.9708" style="fill:#fff"/><circle cx="707.7999" cy="983.4536" r="6.9708" style="fill:#fff"/><circle cx="710.4476" cy="1143.554" r="9.3082" style="fill:#fff"/><circle cx="889.7279" cy="1261.4573" r="9.3081" style="fill:#fff"/><circle cx="1558.6745" cy="1138.5897" r="9.3081" style="fill:#fff"/><circle cx="1799.4456" cy="1124.9376" r="9.3081" style="fill:#fff"/><circle cx="1680.3012" cy="1074.053" r="9.3081" style="fill:#fff"/><circle cx="1558.6745" cy="1079.0174" r="9.3081" style="fill:#fff"/><path d="M1307.7885,129.3365l23.1463-2.2133L1307.83,125.82a10.2692,10.2692,0,0,0-8.8117-8.5428l-2.2132-23.0429-1.3238,23.229a10.22,10.22,0,0,0-7.9016,8.77l-23.6634,2.1512,23.8289,1.2825a10.2474,10.2474,0,0,0,8.15,7.86l2.1512,23.7461,1.2618-23.7047A10.3719,10.3719,0,0,0,1307.7885,129.3365Z" style="fill:#fff"/><path d="M917.1353,387.0278l23.1463-2.2132-23.105-1.3032a10.2476,10.2476,0,0,0-8.8117-8.5428l-2.2132-23.0429-1.3032,23.229a10.216,10.216,0,0,0-7.9222,8.77l-23.6635,2.1512,23.8289,1.2825a10.2475,10.2475,0,0,0,8.15,7.86l2.1512,23.7462,1.2825-23.7048A10.298,10.298,0,0,0,917.1353,387.0278Z" style="fill:#fff"/><path d="M1782.4841,1068.344l23.1464-2.2133-23.1049-1.3031a10.2476,10.2476,0,0,0-8.8118-8.5428l-2.2133-23.0428-1.3032,23.229a10.22,10.22,0,0,0-7.9017,8.77l-23.6634,2.1512,23.8289,1.2825a10.2474,10.2474,0,0,0,8.15,7.86l2.1511,23.7461,1.2824-23.7047A10.3232,10.3232,0,0,0,1782.4841,1068.344Z" style="fill:#fff"/><path d="M838.9467,1424.5777l23.1462-2.2133-23.1049-1.3032a10.2694,10.2694,0,0,0-8.8117-8.5429l-2.2132-23.0221-1.3032,23.2083a10.2158,10.2158,0,0,0-7.9222,8.77l-23.6635,2.1511,23.8289,1.2824a10.2194,10.2194,0,0,0,8.15,7.86l2.1512,23.7462,1.2824-23.7049A10.3218,10.3218,0,0,0,838.9467,1424.5777Z" style="fill:#fff"/><path d="M1708.95,1250.8253l23.1464-2.2133-23.1049-1.3032a10.2475,10.2475,0,0,0-8.8118-8.5429l-2.2133-23.0428-1.3032,23.2084a10.22,10.22,0,0,0-7.9017,8.77l-23.6634,2.1511,23.8289,1.2824a10.2473,10.2473,0,0,0,8.15,7.86l2.1511,23.7462,1.2824-23.7049A10.2743,10.2743,0,0,0,1708.95,1250.8253Z" style="fill:#fff"/><path d="M1341.9188,607.0935c-109.1341,37.5222-215.5791,71.0109-305.3978,95.874-182.5137,50.5537-681.8835,187.4044-983.54,359.9157l25.255,8.6876c183.8-91.84,303.27-120.6959,418.11-152.6539C621.2174,884.1664,1024.899,800.6,1207.6933,755.0932c61.7576-15.3689,134.085-35.4952,210.6917-59.986q-26.7282-32.982-56.4026-66.0466C1355.3647,621.6349,1348.6534,614.3125,1341.9188,607.0935Zm133.3366,162.5619c-26.4241,15.7825-48.569,28.38-64.0728,36.3225-89.7953,45.92-527.5711,310.2721-627.1644,371.0855S408,1468.7192,326.6232,1535.7379l-2.8062,27.2833C586.1879,1354.5183,668.5,1303.0958,772.7938,1232.9123c129.0809-86.8762,396.1051-247.5971,486.8592-299.1023q130.1331-73.8447,235.2217-135.94c-1.1459-1.6962-2.2917-3.3923-3.4376-5.1092Q1483.51,781.2493,1475.2554,769.6554ZM1885.391,386.49c-127.8181,66.2741-329.273,146.2623-524.7182,214.1291q7.0153,7.6017,13.96,15.3275,32.7613,36.4879,61.8279,73.3277c153.6342-50.0572,322.2109-117.2415,455.9686-198.5535-63.7219,53.4082-274.39,192.679-402.84,270.3091q9.9264,14.3036,19.2218,28.5657c194.6033-115.1937,325.5548-199.9807,401.8575-256.6777C2015.8983,454.7293,2255.82,279.7358,2347.0188,45.17,2187.0473,225.1485,1997.9159,328.1382,1885.391,386.49Z" style="fill:#e8432d"/><path d="M998.545,1011.5642c-20.695-23.0428-49.3173-53.9046-70.8074-77.8369-28.7391-32-55.327-64.33-79.6933-96.6188q-11.9261,2.6373-23.8052,5.2746a1486.8648,1486.8648,0,0,0,97.6758,120.7786c26.0032,28.9588,49.6447,52.2706,61.7576,66.7706,2.4554,2.9372,7.3193,9.4323,13.89,18.0786q11.3648-6.826,22.94-13.7761C1013.0433,1027.0571,1005.6772,1019.5072,998.545,1011.5642ZM1149.6071,1132.86c-17-14.2312-58.2267-37.9981-101.1367-73.6587q-14.2059,8.6256-28.6223,17.4581c27.71,34.5435,65.4524,76.9681,95.01,89.3376C1159.3816,1184.6547,1171.3778,1151.104,1149.6071,1132.86Zm225.0261-516.9134C1129.2861,342.783,829.5707,192.7147,700.35,283.5417c-100.3651,70.5352-59.1621,276.68,79.1789,493.2292q10.7334-3.2578,21.2563-6.4123C661.1578,559.3736,622.948,363.3023,717.6073,296.7593c118.9554-83.608,406.1837,67.0394,644.4219,332.2807,49.3173,54.8974,92.6715,110.0018,129.3847,163.72,140.5859,205.8138,183.73,391.9357,86.5918,467.9109-29.7214,23.25-120.5455,32.3718-239.5244-14.9964-1.66,1.8409,1.0055,6.826,3.0867,8.0464,102.7034,36.5293,201.0808,50.45,250.7488,15.5549C1711.67,1185.3786,1619.98,889.11,1374.6332,615.9466Z" style="fill:#fff"/></svg>