<?xml version="1.0" encoding="UTF-8"?>
<svg class="favicon" version="1.1" xmlns="http://www.w3.org/2000/svg" xmlns:xlink="http://www.w3.org/1999/xlink" width="200.000000pt" height="196.000000pt" viewBox="0 0 200.000000 196.000000">
<g transform="translate(0.000000,196.000000) scale(0.100000,-0.100000)" stroke="none">
<path d="M905 1919 c-160 -14 -349 -89 -482 -192 -341 -263 -460 -722 -291
-1122 93 -221 291 -415 509 -501 202 -79 408 -90 617 -34 366 100 640 424 682
805 35 329 -101 650 -363 852 -128 99 -321 178 -460 188 -40 3 -83 7 -97 9
-14 1 -66 -1 -115 -5z m725 -299 c-14 -5 -77 -23 -140 -40 -382 -106 -636
-263 -723 -448 -28 -58 -32 -78 -32 -147 0 -70 4 -87 30 -134 63 -113 181
-124 300 -27 53 44 95 122 116 216 l16 75 13 -45 c20 -72 9 -165 -27 -243 -76
-160 -255 -267 -448 -267 -128 0 -213 48 -269 149 -144 266 121 626 600 815
100 39 274 84 374 96 92 11 222 11 190 0z m-228 -248 c150 -66 209 -247 140
-428 -122 -321 -662 -617 -1120 -613 l-77 0 120 34 c424 118 669 263 761 449
44 90 53 161 30 239 -41 141 -163 186 -287 106 -79 -51 -123 -121 -150 -239
l-16 -75 -13 45 c-31 115 12 261 107 356 60 60 170 120 256 140 79 18 192 12
249 -14z"/>
</g>
</svg>
