<svg xmlns="http://www.w3.org/2000/svg" fill-rule="evenodd" viewBox="0.88 306.77 570.25 534.94" alt="El Llevat">
  <path d="M6 553.82S-15.42 623 29.34 717.19c16 33.68 57.35 78.36 104.36 124.37 84.02.33 169.7 0 169.7 0s-15.06-109.41-82.68-189.05C170.28 593.11 78.36 556.39 6 553.82z"/>
  <path fill="#ba0" d="M571.13 633.84s-199.3-8.25-220.55 176.29c27.76 3.75 144.03-3.75 195.04-94.77 18.04-32.19 25.51-81.52 25.51-81.52z"/>
  <path fill="#ddc500" d="M397.09 306.77s-145.7 42.67-142.7 255.06c.99 69.7 41.34 130.03 65.02 125.36 96.02-44.01 143.36-180.04 119.36-297.74-10.41-51.02-41.68-82.68-41.68-82.68z"/>
</svg>
