<?xml version="1.0" encoding="UTF-8"?>
<svg version="1.1" xmlns="http://www.w3.org/2000/svg" width="150" height="150">
<path d="M0 0 C49.5 0 99 0 150 0 C150 49.5 150 99 150 150 C100.5 150 51 150 0 150 C0 100.5 0 51 0 0 Z M85 12 C82.44821165 14.85856072 80.17757644 17.84916592 78 21 C77.01 20.67 76.02 20.34 75 20 C56.11590351 20.65117574 40.89786519 26.79792511 27.62109375 40.4453125 C17.87709785 51.9458162 12.41123539 65.52265481 12.6875 80.5625 C12.68427734 81.44357422 12.68105469 82.32464844 12.67773438 83.23242188 C12.72713904 89.31817886 13.6141471 93.76366195 15 100 C25.23 100 35.46 100 46 100 C46 99.34 46 98.68 46 98 C45.34 98 44.68 98 44 98 C43.74734375 97.42378906 43.4946875 96.84757812 43.234375 96.25390625 C41.85402298 93.73345336 40.24305321 92.00394083 38.25 89.9375 C33.63961229 84.8643909 28 78.13030877 28 71 C28.36609375 71.78761719 28.7321875 72.57523437 29.109375 73.38671875 C33.74613037 82.71542896 39.67164291 89.65021496 47 97 C47.41016357 97.54422607 47.82032715 98.08845215 48.24291992 98.64916992 C50.97768006 100.75163315 53.38865595 100.33640796 56.78515625 100.29296875 C57.44204941 100.28872391 58.09894257 100.28447906 58.77574158 100.28010559 C60.87174778 100.26333854 62.9667859 100.22571752 65.0625 100.1875 C66.47719953 100.17244828 67.89191429 100.15876072 69.30664062 100.14648438 C72.87137648 100.11270909 76.43556988 100.05784968 80 100 C97.66666667 100 115.33333333 100 133 100 C138.31325834 84.45265093 136.79570508 68.78375259 130 53.9375 C124.94819787 44.32727769 117.56070722 36.6396509 109 30 C108.34 30 107.68 30 107 30 C106.67 30.66 106.34 31.32 106 32 C105.91363281 31.10539062 105.82726562 30.21078125 105.73828125 29.2890625 C104.74069577 20.70433608 103.34111675 12.34111675 97 6 C92.07199489 6 88.72616455 8.95131992 85 12 Z M16 102 C21.6200929 118.86027869 31.74057893 129.50130193 47 138 C61.66943735 145.09646795 80.62970036 145.51852449 95.97265625 140.24609375 C111.13058155 134.00689611 124.01324802 123.21327154 130.9375 108.0625 C132.16388635 105.0678843 132.16388635 105.0678843 132 102 C93.72 102 55.44 102 16 102 Z " fill="#FDFDFC" transform="translate(0,0)"/>
<path d="M0 0 C7.38728102 -0.02526692 14.77455098 -0.0428316 22.16186523 -0.05493164 C24.67716895 -0.05997363 27.19246972 -0.06680703 29.70776367 -0.07543945 C33.31429775 -0.08751094 36.92079323 -0.09322949 40.52734375 -0.09765625 C42.22575661 -0.10539818 42.22575661 -0.10539818 43.95848083 -0.11329651 C45.51998619 -0.11340981 45.51998619 -0.11340981 47.11303711 -0.11352539 C48.03459091 -0.115746 48.95614471 -0.11796661 49.90562439 -0.12025452 C52 0 52 0 53 1 C53.07205511 2.68608966 53.08386068 4.37500659 53.0625 6.0625 C53.05347656 6.98160156 53.04445312 7.90070313 53.03515625 8.84765625 C53.02355469 9.55792969 53.01195312 10.26820312 53 11 C52.67 11 52.34 11 52 11 C52 8.03 52 5.06 52 2 C50.02 2 48.04 2 46 2 C46 2.66 46 3.32 46 4 C46.99 4.33 47.98 4.66 49 5 C49 7.64 49 10.28 49 13 C47.02 13.33 45.04 13.66 43 14 C43.33 10.04 43.66 6.08 44 2 C42.02 2 40.04 2 38 2 C38 2.66 38 3.32 38 4 C38.99 4.33 39.98 4.66 41 5 C41 7.64 41 10.28 41 13 C40.01 13 39.02 13 38 13 C38 13.66 38 14.32 38 15 C44.04654651 15.02493184 50.09306233 15.04296863 56.13964844 15.05493164 C58.19173708 15.05992495 60.24382223 15.06672191 62.29589844 15.07543945 C78.1762418 15.18557991 78.1762418 15.18557991 94 14 C94 12.02 94 10.04 94 8 C94.99 8 95.98 8 97 8 C97.495 10.97 97.495 10.97 98 14 C99.32 14 100.64 14 102 14 C102.66 13.01 103.32 12.02 104 11 C104.495 11.99 104.495 11.99 105 13 C105.66 13 106.32 13 107 13 C106.23430312 19.61283671 101.84511292 22.84092076 97 27 C80.78005313 39.29971802 62.35125201 42.17280151 42.53125 39.5390625 C39.8906438 38.87891095 37.50388203 38.06505415 35 37 C34.02160156 36.58621094 33.04320312 36.17242187 32.03515625 35.74609375 C17.54473704 29.03993505 5.77751969 18.13821264 0 3 C0 2.01 0 1.02 0 0 Z M24 2 C24 2.66 24 3.32 24 4 C24.66 4 25.32 4 26 4 C26 6.97 26 9.94 26 13 C25.34 13 24.68 13 24 13 C24 13.66 24 14.32 24 15 C26.64 15 29.28 15 32 15 C31.34 10.71 30.68 6.42 30 2 C28.02 2 26.04 2 24 2 Z M12 7 C12.16417032 10.56592619 12.16417032 10.56592619 13 14 C15.78863007 15.39431504 17.92078868 15.25660094 21 15 C21.66 14.01 22.32 13.02 23 12 C20.69 12 18.38 12 16 12 C16 10.35 16 8.7 16 7 C17.32 7 18.64 7 20 7 C20 7.66 20 8.32 20 9 C19.01 9.33 18.02 9.66 17 10 C18.12534105 11.35618499 18.12534105 11.35618499 21.0625 11.0625 C22.031875 11.041875 23.00125 11.02125 24 11 C23.42655063 8.13275314 23.1385485 7.1385485 21 5 C15.97000426 4.41355715 15.97000426 4.41355715 12 7 Z " fill="#A2BC31" transform="translate(17,103)"/>
<path d="M0 0 C14.85417049 -0.33255606 27.09889896 5.46527369 37.78125 15.58984375 C46.51578657 25.07788788 50.74054668 37.5391457 53 50 C24.93205769 51.89953419 24.93205769 51.89953419 18.8046875 47.90234375 C16.0314117 45.09351313 14.0269133 42.37962027 12 39 C11.3296875 38.14019531 10.659375 37.28039062 9.96875 36.39453125 C2.99872301 27.41062351 -0.16814176 17.99116803 -0.0625 6.6875 C-0.05347656 5.43324219 -0.04445313 4.17898437 -0.03515625 2.88671875 C-0.01775391 1.45779297 -0.01775391 1.45779297 0 0 Z " fill="#060606" transform="translate(27,50)"/>
<path d="M0 0 C3.76467346 1.57363351 5.20728155 5.30621218 6.953125 8.81640625 C11.85308923 22.3496408 8.82209583 38.21517038 3.328125 51.19140625 C0.274277 56.69572099 -5.40214657 62.99404203 -11.046875 65.81640625 C-13.921875 66.25390625 -13.921875 66.25390625 -17.046875 65.81640625 C-23.9633281 58.70234021 -24.5341728 47.18910107 -24.47045898 37.75610352 C-24.03002426 25.29702632 -18.18025194 12.39557343 -9.046875 3.81640625 C-3.56390146 -0.31966292 -3.56390146 -0.31966292 0 0 Z " fill="#B4A824" transform="translate(96.046875,6.18359375)"/>
<path d="M0 0 C0.495 0.99 0.495 0.99 1 2 C0.28470721 4.13133988 -0.52221109 6.23235468 -1.375 8.3125 C-5.92244653 19.45247377 -6.05310052 30.06302624 -3.2421875 41.7578125 C-3 44 -3 44 -5 47 C-8.31940087 45.54869245 -10.52775203 43.69370053 -13.125 41.1875 C-23.14173671 32.15119429 -36.62261016 27.5919199 -50 27 C-50.33 28.98 -50.66 30.96 -51 33 C-51.99 32.67 -52.98 32.34 -54 32 C-49.34466471 19.00193514 -37.42386776 10.32197035 -25.375 4.5625 C-17.17289448 1.24303801 -8.76669973 0.57649499 0 0 Z " fill="#A3BE33" transform="translate(75,20)"/>
<path d="M0 0 C10.14773662 3.34044711 17.23749462 13.89153489 22 23 C22.91722644 25.36915888 23.50033402 27.5016701 24 30 C23.34 30 22.68 30 22 30 C21.505 31.485 21.505 31.485 21 33 C21 32.34 21 31.68 21 31 C8.10960314 31.88583296 -3.02118586 33.48258571 -12.5 43.1875 C-17.48032625 49.3067782 -19.58177508 56.34433927 -21 64 C-18.36 64.33 -15.72 64.66 -13 65 C-13 65.33 -13 65.66 -13 66 C-17.455 66.495 -17.455 66.495 -22 67 C1.265 67.495 1.265 67.495 25 68 C25 68.33 25 68.66 25 69 C8.17 69 -8.66 69 -26 69 C-27.32 64.05 -28.64 59.1 -30 54 C-31.71881613 49.73699532 -31.71881613 49.73699532 -33.625 46.3125 C-34.21539062 45.19488281 -34.80578125 44.07726562 -35.4140625 42.92578125 C-35.93742187 41.96027344 -36.46078125 40.99476562 -37 40 C-37.67273607 38.66971868 -38.34246328 37.33785937 -39 36 C-38.01 35.01 -37.02 34.02 -36 33 C-35.47212891 33.95712891 -35.47212891 33.95712891 -34.93359375 34.93359375 C-31.77947712 40.24147378 -31.77947712 40.24147378 -26.6875 43.5 C-20.158905 42.61476678 -16.13814905 38.55821762 -12.01171875 33.62109375 C-4.2326556 22.97693667 -1.93957808 12.79827654 0 0 Z " fill="#A6BF39" transform="translate(108,31)"/>
<path d="M0 0 C2.40766212 2.40766212 2.26153236 3.77179921 2.47851562 7.05200195 C3.5031556 21.55236538 9.9257218 32.82353589 20.09375 42.9609375 C22 45 22 45 22 47 C22.66 47 23.32 47 24 47 C24 47.66 24 48.32 24 49 C13.77 49 3.54 49 -7 49 C-10.35841631 33.88712662 -11.17879713 18.18757012 -4 4 C-1.828125 1.59765625 -1.828125 1.59765625 0 0 Z " fill="#A3BE33" transform="translate(22,51)"/>
<path d="M0 0 C-0.6120515 8.56872105 -3.47620248 16.08530397 -10 22 C-18.45465421 28.36823863 -28.38279676 31.72390022 -39 31 C-38.03838297 21.95294994 -34.59043727 14.59043727 -28.11328125 8.11328125 C-19.49170856 1.17055435 -10.89250157 -0.67376298 0 0 Z " fill="#B3A721" transform="translate(127,64)"/>
<path d="M0 0 C0.99 0 1.98 0 3 0 C6.7643027 13.48875133 6.51160479 24.18617364 4 38 C-7.88 37.67 -19.76 37.34 -32 37 C-28.9328185 33.9328185 -27.34505298 33.23330707 -23.375 31.8125 C-14.67644705 28.28890237 -8.26608357 22.95608553 -3.99609375 14.51953125 C-2.13720441 9.81763469 -1.02826143 4.94067078 0 0 Z " fill="#A2BD30" transform="translate(130,61)"/>
<path d="M0 0 C38.28 0 76.56 0 116 0 C115.67 0.99 115.34 1.98 115 3 C115 2.34 115 1.68 115 1 C106.42 1.33 97.84 1.66 89 2 C89.495 3.485 89.495 3.485 90 5 C84.56303166 6.87186032 80.25851354 7.14613573 74.5625 6.625 C73.83095703 6.56828125 73.09941406 6.5115625 72.34570312 6.453125 C70.56288714 6.3132963 68.78127618 6.15824062 67 6 C66.67 6.66 66.34 7.32 66 8 C65.505 7.505 65.505 7.505 65 7 C62.66706666 6.95679753 60.3329866 6.95977609 58 7 C57.01 7 56.02 7 55 7 C54.34 5.35 53.68 3.7 53 2 C35.51 2 18.02 2 0 2 C0 1.34 0 0.68 0 0 Z " fill="#B0C74C" transform="translate(16,102)"/>
<path d="M0 0 C0.66 0.33 1.32 0.66 2 1 C-0.12965758 17.75330627 -4.99427657 31.9685129 -18.5 43.0625 C-21.27509946 44.90217268 -22.13821543 45.00468527 -25.6875 45.125 C-30.36539143 43.53628216 -31.77727611 41.01749441 -34.25 36.9375 C-35 35 -35 35 -35 31 C-34.34 31 -33.68 31 -33 31 C-31.35 34.3 -29.7 37.6 -28 41 C-24.79527546 41.56082679 -22.73165673 41.49204985 -19.99609375 39.65234375 C-13.52020764 34.06120869 -8.90705197 28.99050394 -6.3125 20.75 C-6.10391357 20.09612305 -5.89532715 19.44224609 -5.68041992 18.76855469 C-4.26406179 14.21337681 -3.18620853 9.66473204 -2.45703125 4.953125 C-2 3 -2 3 0 0 Z " fill="#F4F6E6" transform="translate(107,30)"/>
<path d="M0 0 C6.27 0 12.54 0 19 0 C18.01 1.65 17.02 3.3 16 5 C16.66 5 17.32 5 18 5 C18 5.99 18 6.98 18 8 C17.34 8 16.68 8 16 8 C16.99 9.485 16.99 9.485 18 11 C17.625 13.1875 17.625 13.1875 17 15 C15.35 14.67 13.7 14.34 12 14 C12 12.02 12 10.04 12 8 C11.01 8 10.02 8 9 8 C9 9.65 9 11.3 9 13 C8.67 13 8.34 13 8 13 C7.34 10.69 6.68 8.38 6 6 C3.03 5.505 3.03 5.505 0 5 C0.66 4.01 1.32 3.02 2 2 C1.34 1.34 0.68 0.68 0 0 Z " fill="#6B7923" transform="translate(102,103)"/>
<path d="M0 0 C2.64 0 5.28 0 8 0 C9.61492284 5.11392232 8.56964427 8.6165177 6.4765625 13.34375 C0.69571263 23.74316247 -7.90235076 29.30078359 -19 33 C-21.57265818 33.07029121 -24.11641431 33.09370832 -26.6875 33.0625 C-27.38939453 33.05798828 -28.09128906 33.05347656 -28.81445312 33.04882812 C-30.54300538 33.03706927 -32.27151365 33.01913454 -34 33 C-31.47835991 18.9977221 -31.47835991 18.9977221 -26 15 C-26.28617187 15.69480469 -26.57234375 16.38960937 -26.8671875 17.10546875 C-28.05730592 20.1464265 -29.10263453 23.21132475 -30.125 26.3125 C-30.47820312 27.38113281 -30.83140625 28.44976562 -31.1953125 29.55078125 C-31.59363281 30.76314453 -31.59363281 30.76314453 -32 32 C-13.91133913 29.24592064 -13.91133913 29.24592064 0.30078125 18.359375 C4.00483792 12.98357594 5.57153986 7.31774239 7 1 C4.69 1 2.38 1 0 1 C0 0.67 0 0.34 0 0 Z " fill="#EFF0DC" transform="translate(120,63)"/>
<path d="M0 0 C0.91007812 0.00902344 1.82015625 0.01804687 2.7578125 0.02734375 C3.45648438 0.03894531 4.15515625 0.05054687 4.875 0.0625 C4.42479057 5.91522256 1.83660773 10.14470119 -1.125 15.0625 C-1.455 14.4025 -1.785 13.7425 -2.125 13.0625 C-3.115 13.3925 -4.105 13.7225 -5.125 14.0625 C-5.125 13.0725 -5.125 12.0825 -5.125 11.0625 C-5.785 11.0625 -6.445 11.0625 -7.125 11.0625 C-7.455 11.7225 -7.785 12.3825 -8.125 13.0625 C-8.125 11.4125 -8.125 9.7625 -8.125 8.0625 C-7.465 8.0625 -6.805 8.0625 -6.125 8.0625 C-6.125 7.0725 -6.125 6.0825 -6.125 5.0625 C-6.785 5.0625 -7.445 5.0625 -8.125 5.0625 C-7.75 3.125 -7.75 3.125 -7.125 1.0625 C-4.60024538 -0.19987731 -2.81299534 -0.03606404 0 0 Z " fill="#A4BF33" transform="translate(126.125,102.9375)"/>
<path d="M0 0 C9.48851727 3.14032778 15.83941296 12.24272539 20.45703125 20.69921875 C27.4981685 35.76190476 27.4981685 35.76190476 26.625 41.4375 C26.315625 42.2109375 26.315625 42.2109375 26 43 C24 42 24 42 22.921875 38.7890625 C22.52830668 37.40187336 22.1378802 36.01379036 21.75 34.625 C17.71389104 21.08455395 11.22302936 10.76799168 0 2 C0 1.34 0 0.68 0 0 Z " fill="#F4F5EE" transform="translate(55,56)"/>
<path d="M0 0 C1.18464515 3.55393546 0.47765265 4.63115066 -1.11328125 7.890625 C-3.50552579 13.58142699 -4.29903341 18.87153284 -4.1875 25 C-4.1865332 26.00933594 -4.1865332 26.00933594 -4.18554688 27.0390625 C-4.14716679 31.45703642 -3.70756009 35.65275079 -3 40 C-4.485 40.495 -4.485 40.495 -6 41 C-9.769355 27.10050345 -8.44097884 13.88195768 -2 1 C-1.34 0.67 -0.68 0.34 0 0 Z " fill="#F2F4E1" transform="translate(77,21)"/>
<path d="M0 0 C1.98 0 3.96 0 6 0 C6 3.63 6 7.26 6 11 C7.65 11 9.3 11 11 11 C10.87625 9.700625 10.7525 8.40125 10.625 7.0625 C10.55539063 6.33160156 10.48578125 5.60070312 10.4140625 4.84765625 C10.27742188 4.23792969 10.14078125 3.62820312 10 3 C9.34 2.67 8.68 2.34 8 2 C8 1.34 8 0.68 8 0 C9.98 0 11.96 0 14 0 C14.07347656 0.90492187 14.07347656 0.90492187 14.1484375 1.828125 C14.22320312 2.62734375 14.29796875 3.4265625 14.375 4.25 C14.44460937 5.03890625 14.51421875 5.8278125 14.5859375 6.640625 C14.95029348 9.37704633 14.95029348 9.37704633 17 13 C11.39 13 5.78 13 0 13 C0 12.34 0 11.68 0 11 C0.99 11 1.98 11 3 11 C2.87625 9.700625 2.7525 8.40125 2.625 7.0625 C2.55539063 6.33160156 2.48578125 5.60070312 2.4140625 4.84765625 C2.27742188 4.23792969 2.14078125 3.62820312 2 3 C1.34 2.67 0.68 2.34 0 2 C0 1.34 0 0.68 0 0 Z " fill="#1D1614" transform="translate(55,105)"/>
<path d="M0 0 C2.85947552 -0.23828963 5.1975057 -0.42704675 8 0 C10.5625 2.1875 10.5625 2.1875 12 5 C11.58984375 7.67578125 11.58984375 7.67578125 11 10 C9.18757948 10.02687279 7.37504767 10.04633715 5.5625 10.0625 C4.55316406 10.07410156 3.54382813 10.08570312 2.50390625 10.09765625 C0 10 0 10 -1 9 C-1.04063832 7.33382885 -1.042721 5.66611905 -1 4 C-0.01 3.67 0.98 3.34 2 3 C1.34 3 0.68 3 0 3 C0 2.01 0 1.02 0 0 Z " fill="#2A2817" transform="translate(100,108)"/>
<path d="M0 0 C3.5 0.25 3.5 0.25 5.5 2.25 C5.75 5.25 5.75 5.25 5.5 8.25 C3.5 10.25 3.5 10.25 0 10.5 C-3.5 10.25 -3.5 10.25 -5.5 8.25 C-5.75 5.25 -5.75 5.25 -5.5 2.25 C-3.5 0.25 -3.5 0.25 0 0 Z " fill="#2A2817" transform="translate(77.5,107.75)"/>
<path d="M0 0 C1.98493428 3.64038555 2.4575596 6.89295124 3 11 C4.17718985 12.40432936 4.17718985 12.40432936 7.5 12.125 C10.82281015 12.40432936 10.82281015 12.40432936 12 11 C10.35 10.67 8.7 10.34 7 10 C7 9.67 7 9.34 7 9 C9.31 9 11.62 9 14 9 C14.33 8.01 14.66 7.02 15 6 C19 10.75 19 10.75 19 13 C21.97 13 24.94 13 28 13 C28 13.33 28 13.66 28 14 C17.77 14 7.54 14 -3 14 C-1.68 13.34 -0.36 12.68 1 12 C0.67 11.67 0.34 11.34 0 11 C-0.07226502 9.14712498 -0.0838122 7.29166122 -0.0625 5.4375 C-0.05347656 4.42558594 -0.04445313 3.41367188 -0.03515625 2.37109375 C-0.02355469 1.58863281 -0.01195313 0.80617188 0 0 Z " fill="#B1CE34" transform="translate(70,105)"/>
<path d="M0 0 C3.5625 0.3125 3.5625 0.3125 5.5 1.625 C6.5625 3.3125 6.5625 3.3125 6.5625 6.3125 C4.5825 6.3125 2.6025 6.3125 0.5625 6.3125 C0.2325 5.6525 -0.0975 4.9925 -0.4375 4.3125 C0.5525 4.3125 1.5425 4.3125 2.5625 4.3125 C2.5625 3.6525 2.5625 2.9925 2.5625 2.3125 C1.2425 2.3125 -0.0775 2.3125 -1.4375 2.3125 C-1.4375 3.9625 -1.4375 5.6125 -1.4375 7.3125 C0.8725 7.3125 3.1825 7.3125 5.5625 7.3125 C4.5725 8.7975 4.5725 8.7975 3.5625 10.3125 C0.39990129 10.71623601 -1.57762639 10.85708662 -4.3125 9.125 C-5.82082602 6.69491919 -5.79773622 5.12234248 -5.4375 2.3125 C-3.4375 0.3125 -3.4375 0.3125 0 0 Z " fill="#201C15" transform="translate(34.4375,107.6875)"/>
<path d="M0 0 C3.3 0 6.6 0 10 0 C10 0.33 10 0.66 10 1 C8.8553125 1.2165625 8.8553125 1.2165625 7.6875 1.4375 C4.91827092 1.9632594 4.91827092 1.9632594 2 3 C2.64945944 13.53773666 2.64945944 13.53773666 4 24 C3.01 24 2.02 24 1 24 C-1.84888031 16.34363416 -1.97397315 7.8958926 0 0 Z " fill="#EAEEDB" transform="translate(25,47)"/>
<path d="M0 0 C1.17949219 0.10183594 2.35898438 0.20367187 3.57421875 0.30859375 C4.47785156 0.39238281 5.38148437 0.47617188 6.3125 0.5625 C6.6425 1.5525 6.9725 2.5425 7.3125 3.5625 C9.2925 3.2325 11.2725 2.9025 13.3125 2.5625 C12.9825 3.2225 12.6525 3.8825 12.3125 4.5625 C10.3325 4.5625 8.3525 4.5625 6.3125 4.5625 C6.6425 6.5425 6.9725 8.5225 7.3125 10.5625 C4.6458581 11.89582095 3.14569697 11.23352033 0.3125 10.5625 C1.3025 8.2525 2.2925 5.9425 3.3125 3.5625 C3.9725 3.5625 4.6325 3.5625 5.3125 3.5625 C5.3125 2.9025 5.3125 2.2425 5.3125 1.5625 C3.6625 1.5625 2.0125 1.5625 0.3125 1.5625 C0.3125 3.5425 0.3125 5.5225 0.3125 7.5625 C-0.3475 7.2325 -1.0075 6.9025 -1.6875 6.5625 C-1.6875 4.9125 -1.6875 3.2625 -1.6875 1.5625 C-3.9975 1.5625 -6.3075 1.5625 -8.6875 1.5625 C-8.6875 3.2125 -8.6875 4.8625 -8.6875 6.5625 C-9.0175 6.5625 -9.3475 6.5625 -9.6875 6.5625 C-9.6875 4.5825 -9.6875 2.6025 -9.6875 0.5625 C-6.14075997 -0.61974668 -3.71227005 -0.33079634 0 0 Z " fill="#8EA42D" transform="translate(92.6875,107.4375)"/>
<path d="M0 0 C2.31 0 4.62 0 7 0 C7.33 1.65 7.66 3.3 8 5 C8.33 3.35 8.66 1.7 9 0 C10.65 0 12.3 0 14 0 C14 0.66 14 1.32 14 2 C13.34 2 12.68 2 12 2 C11.87625 2.78375 11.7525 3.5675 11.625 4.375 C11 7 11 7 9 9 C5 9 5 9 3.515625 7.5390625 C2.88914062 6.59160156 2.88914062 6.59160156 2.25 5.625 C1.82203125 4.99851562 1.3940625 4.37203125 0.953125 3.7265625 C0 2 0 2 0 0 Z " fill="#1D1714" transform="translate(84,109)"/>
<path d="M0 0 C1.60294922 0.01353516 1.60294922 0.01353516 3.23828125 0.02734375 C4.04652344 0.03894531 4.85476562 0.05054688 5.6875 0.0625 C5.3575 1.3825 5.0275 2.7025 4.6875 4.0625 C4.6875 3.0725 4.6875 2.0825 4.6875 1.0625 C-6.76367337 2.29996551 -17.92316322 4.67316322 -26.3125 13.0625 C-27.3025 14.5475 -27.3025 14.5475 -28.3125 16.0625 C-28.9725 16.0625 -29.6325 16.0625 -30.3125 16.0625 C-27.16246013 8.84431818 -20.52276562 4.74688956 -13.48828125 1.7890625 C-8.93825699 0.26966481 -4.78654699 -0.05259942 0 0 Z " fill="#F6F6EA" transform="translate(123.3125,61.9375)"/>
<path d="M0 0 C0 0.33 0 0.66 0 1 C10.23 1.33 20.46 1.66 31 2 C31 2.33 31 2.66 31 3 C14.83 3 -1.34 3 -18 3 C-13.78747514 -1.21252486 -5.68666971 -0.12099297 0 0 Z " fill="#9BB720" transform="translate(102,96)"/>
<path d="M0 0 C1.98 0 3.96 0 6 0 C6.06058594 0.60328125 6.12117188 1.2065625 6.18359375 1.828125 C6.26738281 2.62734375 6.35117187 3.4265625 6.4375 4.25 C6.55931641 5.43335937 6.55931641 5.43335937 6.68359375 6.640625 C6.97634993 8.82364639 7.42064419 10.8773182 8 13 C5.36 13 2.72 13 0 13 C0 12.34 0 11.68 0 11 C0.66 11 1.32 11 2 11 C2 8.03 2 5.06 2 2 C1.34 2 0.68 2 0 2 C0 1.34 0 0.68 0 0 Z " fill="#241E16" transform="translate(41,105)"/>
<path d="M0 0 C6.47643454 -0.6939037 11.46872733 0.55204956 17.5 2.75 C18.21865234 3.00217285 18.93730469 3.2543457 19.67773438 3.51416016 C21.71875 4.296875 21.71875 4.296875 25 6 C25.96875 8.203125 25.96875 8.203125 26 10 C25.28457031 9.67386719 24.56914063 9.34773438 23.83203125 9.01171875 C17.13270271 6.07372085 10.70367486 4.06488612 3.51953125 2.67578125 C2.27236328 2.34126953 2.27236328 2.34126953 1 2 C0.67 1.34 0.34 0.68 0 0 Z " fill="#F0F2E9" transform="translate(29,48)"/>
</svg>
