<?xml version="1.0" standalone="no"?>
<!DOCTYPE svg PUBLIC "-//W3C//DTD SVG 20010904//EN"
 "http://www.w3.org/TR/2001/REC-SVG-20010904/DTD/svg10.dtd">
<svg version="1.0" xmlns="http://www.w3.org/2000/svg"
 width="570.000000pt" height="570.000000pt" viewBox="0 0 570.000000 570.000000"
 preserveAspectRatio="xMidYMid meet">
<metadata>
Created by potrace 1.14, written by Peter Selinger 2001-2017
</metadata>
<g transform="translate(0.000000,570.000000) scale(0.100000,-0.100000)"
fill="#000000" stroke="none">
<path d="M3920 5508 c-177 -79 -375 -194 -468 -272 -176 -147 -294 -269 -398
-413 -35 -48 -68 -93 -72 -98 -15 -18 -106 -177 -144 -250 -74 -142 -202 -503
-213 -600 -2 -11 -8 -38 -13 -60 -11 -38 -14 -55 -27 -135 -3 -19 -7 -46 -10
-60 -2 -14 -7 -47 -10 -75 -3 -27 -8 -66 -10 -85 -24 -182 -24 -633 1 -751 2
-13 7 -39 10 -58 3 -18 8 -43 10 -55 12 -52 14 -62 18 -82 16 -80 120 -352
141 -366 5 -4 7 -8 3 -8 -8 0 7 -29 62 -120 89 -147 199 -257 290 -291 64 -24
95 -18 189 34 56 31 192 117 201 127 3 3 37 30 75 61 78 63 201 186 281 281
92 111 203 287 287 456 53 106 70 144 92 202 1 3 7 19 14 35 7 17 14 35 15 40
1 6 4 15 7 20 6 9 30 77 35 100 2 6 15 51 29 100 14 50 28 103 31 119 2 16 9
37 14 46 5 10 7 19 5 22 -3 2 0 20 5 39 6 19 13 54 16 79 3 25 8 48 11 53 2 4
6 31 9 60 2 28 6 62 8 74 26 129 27 605 1 778 -2 17 -6 48 -9 70 -3 22 -10 65
-16 95 -6 30 -13 66 -15 80 -12 82 -72 261 -126 378 -22 46 -39 88 -39 93 0 5
-4 9 -9 9 -5 0 -13 10 -17 23 -6 20 -111 183 -138 214 -6 7 -27 33 -46 57 -38
48 -42 50 -80 34z"/>
<path d="M41 3003 c-29 -123 -36 -199 -36 -403 0 -183 8 -276 32 -410 3 -19 7
-42 8 -50 9 -55 24 -122 50 -215 9 -33 18 -67 20 -75 24 -104 176 -468 213
-512 8 -10 12 -18 8 -18 -18 0 211 -316 309 -426 5 -7 24 -29 42 -50 17 -22
48 -57 68 -79 20 -22 71 -78 113 -124 42 -47 163 -172 268 -278 l191 -193 846
0 c831 0 847 0 847 19 0 11 -7 53 -16 93 -9 40 -17 80 -18 88 -1 8 -6 29 -10
45 -19 76 -37 151 -40 162 -1 7 -5 15 -8 19 -4 3 -4 12 -2 19 3 7 1 16 -5 20
-6 3 -11 14 -11 24 0 20 -74 248 -113 351 -55 142 -112 271 -174 395 -91 180
-96 189 -102 195 -6 5 -23 33 -45 75 -23 42 -131 202 -173 255 -24 30 -46 60
-51 65 -16 23 -123 143 -164 185 -86 89 -278 250 -297 250 -6 0 -11 3 -11 8 0
8 -107 80 -224 152 -251 153 -668 319 -966 385 -130 29 -196 41 -275 51 -22 2
-56 6 -75 9 -19 3 -69 7 -111 10 l-77 5 -11 -47z"/>
<path d="M5497 2243 c-1 -1 -36 -4 -77 -7 -41 -3 -86 -8 -100 -11 -13 -3 -42
-7 -65 -10 -39 -5 -63 -10 -115 -21 -14 -2 -36 -6 -50 -8 -61 -10 -312 -84
-375 -112 -16 -7 -64 -27 -105 -44 -152 -63 -320 -164 -460 -278 -80 -64 -217
-202 -265 -267 -17 -22 -32 -42 -35 -45 -36 -33 -175 -286 -220 -400 -65 -162
-123 -404 -124 -515 l-1 -40 145 -1 c80 -1 172 2 205 6 120 16 160 21 177 26
10 3 29 7 43 10 14 2 35 6 48 8 130 23 373 105 517 173 30 15 57 27 60 28 3 0
10 3 15 7 9 5 41 24 110 62 131 74 294 209 411 337 53 59 134 166 134 178 0 6
4 11 9 11 5 0 16 12 24 28 77 145 124 238 124 245 1 4 7 22 14 40 6 18 13 34
13 37 1 3 14 41 28 85 25 76 56 182 63 215 2 8 9 38 15 65 7 28 14 62 16 76 2
15 8 46 13 70 6 24 11 48 11 52 0 6 -197 7 -203 0z"/>
</g>
</svg>
